<svg width="107" height="120" viewBox="0 0 107 120" fill="none" xmlns="http://www.w3.org/2000/svg">
<rect x="93.5" y="25.5" width="12" height="24" rx="1.5" fill="#E36464" stroke="black" stroke-width="3"/>
<rect x="93.5" y="38.5" width="12" height="24" rx="1.5" fill="#8AE364" stroke="black" stroke-width="3"/>
<rect x="93.5" y="51.5" width="12" height="24" rx="1.5" fill="#6494E3" stroke="black" stroke-width="3"/>
<rect x="1.5" y="11.5" width="97" height="97" rx="9.5" fill="#FFE883" stroke="black" stroke-width="3"/>
<path d="M28.96 96C28.16 96 27.76 95.6 27.76 94.8V33.216C27.76 32.416 28.16 32.016 28.96 32.016H42.544C43.344 32.016 43.744 32.416 43.744 33.216V58.656H49.696L52.864 46.704L55.744 32.64C55.808 32.448 55.952 32.304 56.176 32.208C56.432 32.08 56.8 32.016 57.28 32.016H71.104C71.904 32.016 72.304 32.416 72.304 33.216V39.216C72.304 39.568 72.256 39.92 72.16 40.272C72.064 40.592 71.984 40.88 71.92 41.136L66.064 55.2L61.984 62.88L66.16 70.464L73.216 86.496C73.344 86.72 73.44 86.96 73.504 87.216C73.568 87.472 73.6 87.84 73.6 88.32V94.8C73.6 95.6 73.2 96 72.4 96H58.096C57.872 96 57.584 95.968 57.232 95.904C56.912 95.808 56.72 95.6 56.656 95.28L53.104 80.064L50.464 71.376H43.744V94.8C43.744 95.6 43.344 96 42.544 96H28.96Z" fill="black"/>
</svg>
